:SAMPLES-PER-SECOND 30
:FULLY-SPECIFIED
:DEGREES
215
root  14.33882375 36.81733439 -7.297088593 0.7956618071 -45.8431015 -5.770309925
lfemur  -30.90979195 -4.467160702 6.94635582
ltibia  -1.491570742e-006 -8.364404493e-007 52.34008789
lfoot  5.521815751e-007 -10.7093935 0.6000803113
ltoes  -4.250644065 -19.5611806 -102.515957
rfemur  2.544706583 13.41680241 14.74629593
rtibia  -8.727266732e-007 2.533748784e-007 53.94398499
rfoot  -2.316020982e-006 -23.51089096 -18.38949776
rtoes  5.373923086 19.29304026 -105.8922705
lowerback  9.734120369 1.380489945 -4.075729847
upperback  1.687710047 1.326850057 -1.219679952
thorax  -3.764760017 0.6862199903 0.8553630114
rclavicle  0 -9.442270133e-015 7.951389973e-016
rhumerus  -36.75299835 30.8239994 -73.63770294
rradius  -7.782816926e-012 0.001642658608 135.4080048
rwrist  0.002739921212 0.003270594636 -7.055552006
rthumb  -92.93752616 -24.25625642 -97.11982154
rhand  -7.920061211e-032 -33.2840004 9.303460121
rfingers  -90 -7.125020027 -90
lclavicle  0 -9.442270133e-015 7.951389973e-016
lhumerus  -13.27099991 -4.882259846 78.76719666
lradius  1.032090038e-011 0.005718162749 147.4880066
lwrist  1.816137865e-011 1.409039812e-011 -1.099910021
lthumb  89.89689403 5.08795885 91.16245106
lhand  -1.496451383e-031 -27.76390076 20.11240005
lfingers  90 7.125020027 -90
lowerneck  -7.783710003 10.51350021 -6.666900158
upperneck  13.05700016 14.82210064 1.389750123
head  4.610779762 6.999609947 2.312050104
216
root  14.1105772 36.89333398 -7.128400127 1.61841023 -41.83039856 -6.843820095
lfemur  -32.38399124 -5.864349842 7.881566048
ltibia  -1.491570742e-006 -8.364404493e-007 51.58848572
lfoot  5.521815751e-007 -10.03619194 -1.189419031
ltoes  -4.250644065 -19.5611806 -102.515957
rfemur  4.250933647 12.22630024 17.09799957
rtibia  -8.727266732e-007 2.533748784e-007 53.06188583
rfoot  -2.316020982e-006 -22.48999214 -18.83379555
rtoes  5.373923086 19.29304026 -105.8922705
lowerback  9.688850403 1.191660047 -4.516819954
upperback  1.260229945 1.032250047 -1.086130023
thorax  -4.182260036 0.5633040071 1.275410056
rclavicle  0 -9.442270133e-015 7.951389973e-016
rhumerus  -39.08879852 30.0496006 -73.0326004
rradius  -7.782816926e-012 0.001642658608 135.7359924
rwrist  0.002739921212 0.003270594636 -6.732278824
rthumb  -92.93752616 -24.25625642 -97.11982154
rhand  -7.920061211e-032 -33.2840004 9.303460121
rfingers  -90 -7.125020027 -90
lclavicle  0 -9.442270133e-015 7.951389973e-016
lhumerus  -13.9861002 -6.65997982 80.49510193
lradius  1.032090125e-011 0.005718162749 146.3840027
lwrist  1.816137865e-011 1.409039812e-011 -0.4172311723
lthumb  89.89689403 5.08795885 91.16245106
lhand  -1.496451383e-031 -27.76390076 20.11240005
lfingers  90 7.125020027 -90
lowerneck  -7.756040096 9.95855999 -7.171309948
upperneck  13.68029976 13.94599915 2.999530077
head  4.671350002 6.639959812 2.841099977
217
root  13.89046616 36.98977673 -6.966578116 2.477519989 -37.69639969 -8.086850166
lfemur  -33.95060349 -7.173909664 9.216302872
ltibia  -1.491570742e-006 -8.364404493e-007 50.69560623
lfoot  5.521815751e-007 -8.859423637 -3.634130001
ltoes  -4.250644065 -19.5611806 -102.515957
rfemur  5.775288105 11.02019978 19.76639938
rtibia  -8.727266732e-007 2.533748784e-007 52.05050278
rfoot  -2.316020982e-006 -21.04980087 -19.40690231
rtoes  5.373923086 19.29304026 -105.8922705
lowerback  9.677920341 1.093709946 -4.458059788
upperback  0.9680500031 0.9007149935 -1.152279973
thorax  -4.472280025 0.5079849958 1.187890053
rclavicle  0 -9.442270133e-015 7.951389973e-016
rhumerus  -40.13750076 28.81329918 -71.81279755
rradius  -7.782816926e-012 0.001642658608 136.1069946
rwrist  0.002739921212 0.003270594636 -6.657497883
rthumb  -92.93752616 -24.25625642 -97.11982154
rhand  -7.920061211e-032 -33.2840004 9.303460121
rfingers  -90 -7.125020027 -90
lclavicle  0 -9.442270133e-015 7.951389973e-016
lhumerus  -14.35079956 -8.969539642 81.91459656
lradius  1.032089865e-011 0.005718162749 145.2949982
lwrist  1.816137865e-011 1.409039812e-011 -0.3096191585
lthumb  89.89689403 5.08795885 91.16245106
lhand  -1.496451383e-031 -27.76390076 20.11240005
lfingers  90 7.125020027 -90
lowerneck  -7.95472002 9.223239899 -7.612659931
upperneck  14.2802 12.77530098 4.982560158
head  4.772999763 6.17208004 3.483599901
218
root  13.67164372 37.09533271 -6.814511367 3.082700253 -33.23839951 -8.948120117
lfemur  -35.85820007 -8.478830338 10.40670204
ltibia  -1.491570742e-006 -8.364404493e-007 49.74869919
lfoot  5.521815751e-007 -7.190270424 -6.281909943
ltoes  -4.250644065 -19.5611806 -102.515957
rfemur  7.113029957 9.685331345 22.24510002
rtibia  -8.727266732e-007 2.533748784e-007 50.93050003
rfoot  -2.316020982e-006 -19.39749718 -19.48579979
rtoes  5.373923086 19.29304026 -105.8922705
lowerback  9.631389618 0.9920099974 -4.567669868
upperback  0.8030700088 0.7414919734 -1.388739944
thorax  -4.608779907 0.4348529875 1.023300052
rclavicle  0 -9.442270133e-015 7.951389973e-016
rhumerus  -40.46820068 26.95269966 -69.85890198
rradius  -7.782816058e-012 0.001642658608 137.026001
rwrist  0.002739921212 0.003270594636 -6.940639973
rthumb  -92.93752616 -24.25625642 -97.11982154
rhand  -7.920061211e-032 -33.2840004 9.303460121
rfingers  -90 -7.125020027 -90
lclavicle  0 -9.442270133e-015 7.951389973e-016
lhumerus  -14.11530018 -11.34759998 82.8809967
lradius  1.032089952e-011 0.005718162749 144.072998
lwrist  1.816137865e-011 1.409039812e-011 -0.3340259492
lthumb  89.89689403 5.08795885 91.16245106
lhand  -1.496451383e-031 -27.76390076 20.11240005
lfingers  90 7.125020027 -90
lowerneck  -8.223679543 8.380979538 -7.937719822
upperneck  14.66959953 11.42230034 7.061709881
head  4.862979889 5.640580177 4.13929987
